PathFileType	4	(X/Y/Z)	C:/Users/beibeiliu/ov580/test_trc/User3\sequence.36_training_dense_left.trc
DataRate	CameraRate	NumFrames	NumMarkers	Units	OrigDataRate	OrigDataStartFrame	OrigNumFrames
120	120	11	19	mm	120	31	91
Frame#	Time	ThumbCMC			ThumbMCP			ThumbIP			ThumbTip			IndexMCP			IndexPIP			IndexTip			MiddleMCP			MiddlePIP			MiddleTip			RingMCP			RingPIP			RingTip			PinkyMCP			PinkyPIP			PinkyTip			BackHand1			BackHand2			BackHand3	
		X0	Y0	Z0	X1	Y1	Z1	X2	Y2	Z2	X3	Y3	Z3	X4	Y4	Z4	X5	Y5	Z5	X6	Y6	Z6	X7	Y7	Z7	X8	Y8	Z8	X9	Y9	Z9	X10	Y10	Z10	X11	Y11	Z11	X12	Y12	Z12	X13	Y13	Z13	X14	Y14	Z14	X15	Y15	Z15	X16	Y16	Z16	X17	Y17	Z17	X18	Y18	Z18	
30	0.25	-75.0006	2.77033	10.2545	-51.8559	-16.5458	-9.19651	-48.9229	-34.3421	-29.8262	-61.8382	-49.7408	-50.4403	-66.0244	6.34203	-66.5025	-57.4194	-19.6072	-78.9907	-57.9781	-41.7367	-48.5141	-90.4846	-2.32401	-72.5186	-77.1375	-33.6012	-82.6281	-77.6624	-49.4796	-48.5763	-105.587	-10.8828	-72.1666	-96.9478	-41.1955	-75.8996	-88.3841	-50.9139	-46.0528	-122.666	-19.1103	-60.4425	-112.208	-42.25	-67.155	-102.945	-56.7171	-37.615	-128.807	16.266	-25.3674	-136.347	17.9308	6.26512	-101.837	27.7953	-3.98074	
31	0.258333	-74.258	3.8919	12.8723	-50.4889	-16.6878	-7.59783	-47.7908	-32.5221	-30.0243	-57.1214	-50.1589	-51.6785	-70.0659	6.18701	-67.1209	-54.9247	-17.9284	-79.2633	-53.4345	-40.4728	-52.8652	-87.2166	-2.45665	-76.0435	-75.0519	-32.0529	-82.1408	-73.5988	-49.3435	-46.5982	-108.727	-11.1018	-69.7726	-96.4093	-36.2004	-78.4071	-89.7686	-51.6024	-47.6238	-126.252	-18.3949	-58.4509	-112.577	-43.8839	-67.9768	-104.661	-56.5617	-44.7335	-127.929	16.9382	-23.6576	-134.357	18.1406	7.78248	-97.2744	27.7976	-3.6796	
32	0.266667	-73.8191	3.79608	11.3368	-52.0698	-14.5162	-7.04655	-44.0997	-33.1232	-31.2836	-59.4374	-47.4696	-50.2417	-69.9141	9.51155	-63.0794	-57.7176	-17.7498	-80.8916	-55.403	-41.2148	-57.4914	-91.1047	-1.46418	-73.8198	-77.0703	-30.28	-85.8659	-73.479	-48.4491	-50.338	-106.661	-8.79767	-70.3496	-97.6291	-36.1614	-80.6413	-90.8383	-52.1333	-51.3934	-126.506	-19.407	-60.6876	-109.587	-40.0512	-69.4495	-102.251	-56.6071	-44.0654	-129.176	15.6511	-25.0728	-134.953	17.0311	7.30163	-103.929	24.7174	-3.87639	
33	0.275	-71.8585	6.08527	12.6711	-50.1689	-12.7246	-8.7799	-44.0296	-31.7075	-35.9206	-57.1447	-45.7579	-49.8489	-75.2743	7.70673	-65.2577	-61.5489	-16.9652	-83.4795	-55.3373	-40.3758	-60.153	-89.176	-1.38637	-76.4732	-77.1439	-28.9162	-86.6396	-73.2494	-48.2413	-53.8645	-106.13	-9.68156	-72.6977	-97.136	-35.4172	-81.0951	-90.5124	-51.5245	-50.4953	-125.19	-19.6844	-64.644	-109.416	-39.8903	-70.2501	-103.215	-59.7767	-49.5916	-126.925	16.0687	-24.9997	-135.643	17.0603	2.31792	-104.439	27.033	-6.04733	
34	0.283333	-74.0708	7.1987	12.8495	-48.8388	-10.2911	-5.94613	-43.017	-26.6389	-30.7932	-55.9712	-41.8524	-50.0643	-74.2281	11.003	-64.0577	-61.201	-17.017	-82.8473	-55.7593	-38.1296	-64.6028	-89.2393	0.899636	-77.5528	-77.3607	-29.0832	-85.7045	-74.6821	-45.8707	-49.5147	-109.596	-7.84582	-72.0992	-93.4651	-34.8918	-81.3684	-89.5343	-50.3013	-50.7021	-127.412	-17.5903	-59.2105	-109.209	-39.301	-71.8533	-99.0765	-56.6654	-50.4474	-127.342	16.3631	-24.0756	-137.65	16.832	6.78025	-105.657	26.8095	-5.6447	
35	0.291667	-73.8177	7.56994	15.4613	-50.539	-6.53385	-8.65081	-43.3535	-21.3683	-30.5846	-52.1442	-38.0135	-50.024	-74.8512	13.1453	-65.6129	-58.5086	-13.5733	-83.3537	-54.7051	-35.0454	-64.6638	-94.0287	0.32751	-78.2443	-76.6913	-26.675	-85.6653	-72.8565	-44.7682	-51.3586	-111.025	-7.81899	-72.332	-95.3194	-35.2707	-81.4335	-88.9986	-48.9871	-53.9802	-125.76	-17.0212	-64.2321	-109.425	-39.1846	-72.4984	-102.678	-57.2232	-53.4333	-130.877	15.9065	-26.2054	-140.259	16.7665	4.78421	-106.161	25.4131	-2.90835	
36	0.3	-74.3539	8.28766	14.358	-52.8777	-3.57872	-9.28833	-41.8451	-16.2502	-31.2203	-41.0995	-32.9626	-55.0775	-79.9786	10.3436	-66.4876	-66.4017	-11.0985	-85.646	-59.255	-35.8831	-64.299	-95.063	2.08575	-76.0326	-78.2428	-23.8228	-88.3014	-77.8885	-45.3148	-54.8909	-112.827	-7.59941	-70.5986	-98.8843	-32.0501	-82.9144	-89.0517	-47.9918	-50.49	-124.803	-17.5617	-63.319	-110.477	-37.2429	-72.329	-102.711	-58.3695	-51.3331	-134.199	12.883	-22.9661	-140.135	15.7795	4.12969	-107.325	24.6725	-3.55203	
37	0.308333	-75.6282	7.05251	11.1524	-53.3973	-0.429689	-12.0967	-40.3414	-10.0487	-32.4022	-35.2061	-22.6961	-56.8925	-79.3617	9.13989	-70.6432	-64.8601	-14.6986	-84.7311	-57.2672	-33.9188	-59.3864	-97.7668	1.75027	-75.0258	-81.9947	-25.3296	-88.0445	-80.568	-43.6384	-54.6681	-114.675	-7.87208	-71.7136	-96.7879	-34.5957	-81.304	-94.1712	-48.5983	-48.5839	-130.806	-16.2023	-60.5821	-115.742	-38.1634	-73.9927	-102.233	-54.5776	-55.8034	-130.053	14.7865	-19.9391	-142.592	13.815	5.58756	-103.207	26.3963	-4.30107	
38	0.316667	-77.5194	8.02535	10.6963	-51.7797	4.16086	-10.256	-37.4417	-0.0470906	-35.5752	-35.4154	-10.4097	-56.5311	-78.4267	13.2352	-66.922	-61.081	-12.8334	-82.6104	-61.1811	-32.0314	-55.9636	-93.2433	6.1982	-75.3593	-81.7674	-24.205	-86.6811	-82.9267	-39.0531	-48.7289	-110.986	-4.22786	-73.3329	-99.2292	-31.7223	-82.0345	-94.2836	-43.897	-50.8905	-128.128	-14.0898	-63.4815	-117.243	-36.534	-74.7193	-105.37	-54.2833	-48.8459	-132.397	14.2679	-21.0726	-136.534	15.9692	6.52206	-102.907	28.3142	-2.6895	
39	0.325	-78.5341	8.82038	10.2686	-58.5718	7.65928	-10.6199	-40.6854	8.94824	-39.4841	-35.4869	3.39287	-65.3332	-77.5421	13.1879	-71.3313	-63.6396	-10.3807	-81.878	-62.9602	-26.2982	-49.2783	-97.0452	5.67881	-79.033	-83.1322	-23.5722	-82.975	-85.5568	-33.2126	-48.5935	-111.385	-0.276955	-72.7806	-101.058	-29.3353	-79.2865	-98.7123	-37.3678	-45.1874	-129.755	-11.1473	-66.6872	-116.63	-33.775	-73.3308	-108.44	-44.7762	-45.2847	-130.432	20.4788	-20.6419	-138.666	15.4345	6.82583	-102.237	28.4897	0.277602	
40	0.333333	-73.4429	10.8288	8.68211	-58.8668	12.4015	-15.8774	-44.6536	15.5334	-42.403	-39.7395	12.02	-67.4575	-79.6402	16.0598	-72.2293	-64.7095	-10.3334	-78.2196	-68.1727	-22.0326	-48.1982	-97.4238	8.80311	-77.9976	-84.524	-19.9014	-82.1098	-84.4532	-23.2485	-42.1481	-115.232	1.34367	-74.1979	-102.296	-26.2261	-79.0079	-98.3837	-28.3933	-43.0285	-130.881	-5.43191	-64.7706	-119.554	-30.6634	-72.9838	-108.369	-38.5405	-45.166	-134.383	21.873	-24.3652	-138.236	17.4303	7.74892	-105.593	30.2812	-0.787357	
